<?xml version="1.0" encoding="UTF-8" standalone="no"?>
<svg
   xmlns:dc="http://purl.org/dc/elements/1.1/"
   xmlns:cc="http://creativecommons.org/ns#"
   xmlns:rdf="http://www.w3.org/1999/02/22-rdf-syntax-ns#"
   xmlns:svg="http://www.w3.org/2000/svg"
   xmlns="http://www.w3.org/2000/svg"
   xmlns:sodipodi="http://sodipodi.sourceforge.net/DTD/sodipodi-0.dtd"
   xmlns:inkscape="http://www.inkscape.org/namespaces/inkscape"
   version="1.1"
   style="font-family:Lato, 'Helvetica Neue', Helvetica, Arial, sans-serif;font-size:18px;background-color:white;text-rendering:optimizeLegibility;-webkit-font-smoothing:antialiased"
   width="850"
   height="600"
   id="svg395"
   sodipodi:docname="cumulative-global-plastics-modified.svg"
   inkscape:version="0.92.3 (2405546, 2018-03-11)">
  <metadata
     id="metadata401">
    <rdf:RDF>
      <cc:Work
         rdf:about="">
        <dc:format>image/svg+xml</dc:format>
        <dc:type
           rdf:resource="http://purl.org/dc/dcmitype/StillImage" />
        <dc:title />
      </cc:Work>
    </rdf:RDF>
  </metadata>
  <defs
     id="defs399" />
  <sodipodi:namedview
     pagecolor="#ffffff"
     bordercolor="#666666"
     borderopacity="1"
     objecttolerance="10"
     gridtolerance="10"
     guidetolerance="10"
     inkscape:pageopacity="0"
     inkscape:pageshadow="2"
     inkscape:window-width="1853"
     inkscape:window-height="1025"
     id="namedview397"
     showgrid="false"
     inkscape:zoom="1.3992395"
     inkscape:cx="408.49297"
     inkscape:cy="319.63751"
     inkscape:window-x="67"
     inkscape:window-y="27"
     inkscape:window-maximized="1"
     inkscape:current-layer="g379" />
  <g
     class="HeaderView"
     id="g306">
    <g
       transform="matrix(0.29,0,0,0.29,772.5782,14.2891)"
       id="g294" />
    <a
       href="https://ourworldindata.org/grapher/cumulative-global-plastics"
       target="_blank"
       id="a300">
      <text
         font-size="25.20"
         x="312.65161"
         y="36.210701"
         id="text298"
         style="font-size:25.20000076px;fill:#555555">
        <tspan
           x="312.65161"
           y="36.1707"
           id="tspan296"
           style="font-style:normal;font-variant:normal;font-weight:normal;font-stretch:normal;font-size:29.33333397px;font-family:'liberation sans';-inkscape-font-specification:'liberation sans'">Kumulative weltweite Plastikproduktion</tspan>
      </text>
    </a>
    <text
       font-size="14.40"
       x="15"
       y="53.700001"
       id="text304"
       style="font-size:14.39999962px;fill:#666666">
      <tspan
         x="15"
         y="53.720001"
         id="tspan302" />
    </text>
  </g>
  <g
     class="StackedArea"
     id="g379">
    <defs
       id="defs311">
      <clipPath
         id="boundsClip-5">
        <rect
           x="128.54000000000002"
           y="0"
           width="820"
           height="963.8"
           id="rect308" />
      </clipPath>
    </defs>
    <g
       class="AxisBoxView"
       id="g367">
      <g
         class="HorizontalAxis"
         id="g329">
        <text
           x="128.5"
           y="556.5"
           fill="#666"
           text-anchor="middle"
           font-size="16.2"
           id="text313">
          <tspan
             style="font-size:18.66666667px"
             id="tspan439">1950</tspan>
        </text>
        <text
           x="234.1"
           y="556.5"
           fill="#666"
           text-anchor="middle"
           font-size="16.2"
           id="text315">
          <tspan
             style="font-size:18.66666667px"
             id="tspan441">1960</tspan>
        </text>
        <text
           x="339.8"
           y="556.5"
           fill="#666"
           text-anchor="middle"
           font-size="16.2"
           id="text317">
          <tspan
             style="font-size:18.66666667px"
             id="tspan443">1970</tspan>
        </text>
        <text
           x="445.4"
           y="556.5"
           fill="#666"
           text-anchor="middle"
           font-size="16.2"
           id="text319">
          <tspan
             style="font-size:18.66666667px"
             id="tspan445">1980</tspan>
        </text>
        <text
           x="551"
           y="556.5"
           fill="#666"
           text-anchor="middle"
           font-size="16.2"
           id="text321">
          <tspan
             style="font-size:18.66666667px"
             id="tspan447">1990</tspan>
        </text>
        <text
           x="656.6"
           y="556.5"
           fill="#666"
           text-anchor="middle"
           font-size="16.2"
           id="text323">
          <tspan
             style="font-size:18.66666667px"
             id="tspan449">2000</tspan>
        </text>
        <text
           x="762.2"
           y="556.5"
           fill="#666"
           text-anchor="middle"
           font-size="16.2"
           id="text325">
          <tspan
             style="font-size:18.66666667px"
             id="tspan451">2010</tspan>
        </text>
        <text
           x="815"
           y="556.5"
           font-size="16.2"
           id="text327"
           style="font-size:16.20000076px;text-anchor:middle;fill:#666666">
          <tspan
             style="font-size:18.66666603px"
             id="tspan453">  2015</tspan>
        </text>
      </g>
      <g
         class="VerticalAxis"
         id="g347">
        <text
           x="123.54"
           y="535.29999"
           dominant-baseline="middle"
           font-size="16.2"
           id="text331"
           style="font-size:16.20000076px;dominant-baseline:middle;text-anchor:end;fill:#666666">
          <tspan
             style="font-size:18.66666667px;-inkscape-font-specification:'liberation sans';font-family:'liberation sans';font-weight:normal;font-style:normal;font-stretch:normal;font-variant:normal"
             id="tspan437">0 Tonnen</tspan>
        </text>
        <text
           x="123.54"
           y="476.39999"
           dominant-baseline="middle"
           font-size="16.2"
           id="text333"
           style="font-size:16.20000076px;dominant-baseline:middle;text-anchor:end;fill:#666666">
          <tspan
             style="font-size:18.66666667px;-inkscape-font-specification:'liberation sans';font-family:'liberation sans';font-weight:normal;font-style:normal;font-stretch:normal;font-variant:normal"
             id="tspan435">1 Mrd. Tonnen</tspan>
        </text>
        <text
           x="123.54"
           y="417.5"
           dominant-baseline="middle"
           font-size="16.2"
           id="text335"
           style="font-size:16.20000076px;dominant-baseline:middle;text-anchor:end;fill:#666666">
          <tspan
             style="font-size:18.66666667px;-inkscape-font-specification:'liberation sans';font-family:'liberation sans';font-weight:normal;font-style:normal;font-stretch:normal;font-variant:normal"
             id="tspan433">2 Mrd. Tonnen</tspan>
        </text>
        <text
           x="123.54"
           y="358.60001"
           dominant-baseline="middle"
           font-size="16.2"
           id="text337"
           style="font-size:16.20000076px;dominant-baseline:middle;text-anchor:end;fill:#666666">
          <tspan
             style="font-size:18.66666667px;-inkscape-font-specification:'liberation sans';font-family:'liberation sans';font-weight:normal;font-style:normal;font-stretch:normal;font-variant:normal"
             id="tspan431">3 Mrd. Tonnen</tspan>
        </text>
        <text
           x="123.54"
           y="299.70001"
           dominant-baseline="middle"
           font-size="16.2"
           id="text339"
           style="font-size:16.20000076px;dominant-baseline:middle;text-anchor:end;fill:#666666">
          <tspan
             style="font-size:18.66666667px;-inkscape-font-specification:'liberation sans';font-family:'liberation sans';font-weight:normal;font-style:normal;font-stretch:normal;font-variant:normal"
             id="tspan429">4 Mrd. Tonnen</tspan>
        </text>
        <text
           x="123.54"
           y="240.8"
           dominant-baseline="middle"
           font-size="16.2"
           id="text341"
           style="font-size:16.20000076px;dominant-baseline:middle;text-anchor:end;fill:#666666">
          <tspan
             style="font-size:18.66666667px;-inkscape-font-specification:'liberation sans';font-family:'liberation sans';font-weight:normal;font-style:normal;font-stretch:normal;font-variant:normal"
             id="tspan427">5 Mrd. Tonnen</tspan>
        </text>
        <text
           x="123.54"
           y="182"
           dominant-baseline="middle"
           font-size="16.2"
           id="text343"
           style="font-size:16.20000076px;dominant-baseline:middle;text-anchor:end;fill:#666666">
          <tspan
             style="font-style:normal;font-variant:normal;font-weight:normal;font-stretch:normal;font-size:18.66666603px;font-family:'liberation sans';-inkscape-font-specification:'liberation sans'"
             id="tspan425">6 Mrd. Tonnen</tspan>
        </text>
        <text
           x="123.54"
           y="123.1"
           dominant-baseline="middle"
           font-size="16.2"
           id="text345"
           style="font-size:16.20000076px;dominant-baseline:middle;text-anchor:end;fill:#666666">
          <tspan
             style="font-style:normal;font-variant:normal;font-weight:normal;font-stretch:normal;font-size:18.66666603px;font-family:'liberation sans';-inkscape-font-specification:'liberation sans'"
             id="tspan423">7 Mrd.Tonnen</tspan>
        </text>
      </g>
      <g
         class="AxisGridLines"
         id="g365">
        <line
           x1="128.54"
           y1="535.3"
           x2="815.00"
           y2="535.3"
           stroke="#ccc"
           id="line349" />
        <line
           x1="128.54"
           y1="476.4"
           x2="815.00"
           y2="476.4"
           stroke="#ddd"
           stroke-dasharray="3,2"
           id="line351" />
        <line
           x1="128.54"
           y1="417.5"
           x2="815.00"
           y2="417.5"
           stroke="#ddd"
           stroke-dasharray="3,2"
           id="line353" />
        <line
           x1="128.54"
           y1="358.6"
           x2="815.00"
           y2="358.6"
           stroke="#ddd"
           stroke-dasharray="3,2"
           id="line355" />
        <line
           x1="128.54"
           y1="299.7"
           x2="815.00"
           y2="299.7"
           stroke="#ddd"
           stroke-dasharray="3,2"
           id="line357" />
        <line
           x1="128.54"
           y1="240.8"
           x2="815.00"
           y2="240.8"
           stroke="#ddd"
           stroke-dasharray="3,2"
           id="line359" />
        <line
           x1="128.54"
           y1="182"
           x2="815.00"
           y2="182"
           stroke="#ddd"
           stroke-dasharray="3,2"
           id="line361" />
        <line
           x1="128.54"
           y1="123.1"
           x2="815.00"
           y2="123.1"
           stroke="#ddd"
           stroke-dasharray="3,2"
           id="line363" />
      </g>
    </g>
    <g
       clip-path="url(#boundsClip-5)"
       id="g377">
      <g
         class="Areas"
         id="g375">
        <rect
           x="128.54000000000002"
           y="74.6"
           width="686.46"
           height="460.69999999999993"
           opacity="0"
           fill="rgba(255,255,255,0)"
           id="rect369" />
        <path
           class="World_0-area"
           stroke-linecap="round"
           d="M128.5 535.2L139.1 535.1L149.7 534.9L160.2 534.8L170.8 534.6L181.3 534.4L191.9 534.1L202.5 533.8L213 533.4L223.6 533L234.1 532.5L244.7 532L255.3 531.4L265.8 530.6L276.4 529.7L287 528.7L297.5 527.5L308.1 526.2L318.6 524.6L329.2 522.7L339.8 520.6L350.3 518.4L360.9 515.8L371.4 512.8L382 509.7L392.6 507L403.1 503.9L413.7 500.4L424.2 496.6L434.8 492.4L445.4 488.3L455.9 484.1L466.5 479.8L477.1 475.1L487.6 470L498.2 464.7L508.7 459L519.3 452.9L529.9 446.4L540.4 439.7L551 432.7L561.5 425.4L572.1 417.6L582.7 409.5L593.2 400.6L603.8 391.4L614.3 381.5L624.9 370.9L635.5 359.9L646 348L656.6 335.4L667.1 322.6L677.7 309L688.3 294.8L698.8 279.7L709.4 264.2L720 247.7L730.5 230.4L741.1 213.8L751.6 196.9L762.2 178.4L772.8 159.3L783.3 139.4L793.9 118.7L804.4 97L815 74.6L815 535.3L128.54000000000002 535.3"
           fill="#3360a9"
           fill-opacity="0.7"
           id="path371" />
        <path
           class="World_0-border"
           stroke-linecap="round"
           d="M128.5 535.2L139.1 535.1L149.7 534.9L160.2 534.8L170.8 534.6L181.3 534.4L191.9 534.1L202.5 533.8L213 533.4L223.6 533L234.1 532.5L244.7 532L255.3 531.4L265.8 530.6L276.4 529.7L287 528.7L297.5 527.5L308.1 526.2L318.6 524.6L329.2 522.7L339.8 520.6L350.3 518.4L360.9 515.8L371.4 512.8L382 509.7L392.6 507L403.1 503.9L413.7 500.4L424.2 496.6L434.8 492.4L445.4 488.3L455.9 484.1L466.5 479.8L477.1 475.1L487.6 470L498.2 464.7L508.7 459L519.3 452.9L529.9 446.4L540.4 439.7L551 432.7L561.5 425.4L572.1 417.6L582.7 409.5L593.2 400.6L603.8 391.4L614.3 381.5L624.9 370.9L635.5 359.9L646 348L656.6 335.4L667.1 322.6L677.7 309L688.3 294.8L698.8 279.7L709.4 264.2L720 247.7L730.5 230.4L741.1 213.8L751.6 196.9L762.2 178.4L772.8 159.3L783.3 139.4L793.9 118.7L804.4 97L815 74.6"
           stroke="rgb(43, 80, 141)"
           stroke-opacity="0.7"
           stroke-width="0.5"
           fill="none"
           id="path373" />
      </g>
    </g>
  </g>
  <g
     class="SourcesFooter"
     style="fill:#777"
     id="g393">
    <g
       class="clickable"
       style="fill:#777"
       id="g385">
      <text
         font-size="12.60"
         x="15.0"
         y="581.6"
         id="text383">
        <tspan
           x="15"
           y="581.58"
           id="tspan381">Source: Geyer et al. (2017)</tspan>
      </text>
    </g>
    <text
       font-size="12.60"
       x="796.4"
       y="581.6"
       id="text391">
      <tspan
         x="796.444"
         y="581.58"
         id="tspan389">
        <a
           style="fill: #777;"
           class="cclogo"
           href="http://creativecommons.org/licenses/by/4.0/deed.en_US"
           target="_blank"
           id="a387">CC BY</a>
      </tspan>
    </text>
  </g>
</svg>
